HIERARCHY
ROOT Hips
{
	OFFSET 0.000000 0.000000 0.000000
	CHANNELS 6 Xposition Yposition Zposition Zrotation Yrotation Xrotation 
	JOINT LHipJoint
	{
		OFFSET 0.000000 0.000000 0.000000
		CHANNELS 3 Zrotation Yrotation Xrotation
		JOINT LeftUpLeg
		{
			OFFSET 1.363060 -1.794630 0.839290
			CHANNELS 3 Zrotation Yrotation Xrotation
			JOINT LeftLeg
			{
				OFFSET 2.448110 -6.726130 0.000000
				CHANNELS 3 Zrotation Yrotation Xrotation
				JOINT LeftFoot
				{
					OFFSET 2.562200 -7.039590 0.000000
					CHANNELS 3 Zrotation Yrotation Xrotation
					JOINT LeftToeBase
					{
						OFFSET 0.157640 -0.433110 2.322550
						CHANNELS 3 Zrotation Yrotation Xrotation
						End Site
						{
							OFFSET 0.000000 0.000000 0.000000
						}
					}
				}
			}
		}
	}
	JOINT RHipJoint
	{
		OFFSET 0.000000 0.000000 0.000000
		CHANNELS 3 Zrotation Yrotation Xrotation
		JOINT RightUpLeg
		{
			OFFSET -1.305520 -1.794630 0.839290
			CHANNELS 3 Zrotation Yrotation Xrotation
			JOINT RightLeg
			{
				OFFSET -2.542530 -6.985550 0.000000
				CHANNELS 3 Zrotation Yrotation Xrotation
				JOINT RightFoot
				{
					OFFSET -2.568260 -7.056230 0.000000
					CHANNELS 3 Zrotation Yrotation Xrotation
					JOINT RightToeBase
					{
						OFFSET -0.164730 -0.452590 2.363150
						CHANNELS 3 Zrotation Yrotation Xrotation
						End Site
						{
							OFFSET 0.000000 0.000000 0.000000
						}
					}
				}
			}
		}
	}
	JOINT LowerBack
	{
		OFFSET 0.000000 0.000000 0.000000
		CHANNELS 3 Zrotation Yrotation Xrotation
		JOINT Spine
		{
			OFFSET 0.028270 2.035590 -0.193380
			CHANNELS 3 Zrotation Yrotation Xrotation
			JOINT Spine1
			{
				OFFSET 0.056720 2.048850 -0.042750
				CHANNELS 3 Zrotation Yrotation Xrotation
				JOINT Neck
				{
					OFFSET 0.000000 0.000000 0.000000
					CHANNELS 3 Zrotation Yrotation Xrotation
					JOINT Neck1
					{
						OFFSET -0.054170 1.746240 0.172020
						CHANNELS 3 Zrotation Yrotation Xrotation
						JOINT Head
						{
							OFFSET 0.104070 1.761360 -0.123970
							CHANNELS 3 Zrotation Yrotation Xrotation
							End Site
							{
								OFFSET 0.000000 0.000000 0.000000
							}
						}
					}
				}
				JOINT LeftShoulder
				{
					OFFSET 0.000000 0.000000 0.000000
					CHANNELS 3 Zrotation Yrotation Xrotation
					JOINT LeftArm
					{
						OFFSET 3.362410 1.200890 -0.311210
						CHANNELS 3 Zrotation Yrotation Xrotation
						JOINT LeftForeArm
						{
							OFFSET 4.983000 -0.000000 -0.000000
							CHANNELS 3 Zrotation Yrotation Xrotation
							JOINT LeftHand
							{
								OFFSET 3.483560 -0.000000 -0.000000
								CHANNELS 3 Zrotation Yrotation Xrotation
								JOINT LeftFingerBase
								{
									OFFSET 0.000000 0.000000 0.000000
									CHANNELS 3 Zrotation Yrotation Xrotation
									JOINT LeftHandIndex1
									{
										OFFSET 0.715260 -0.000000 -0.000000
										CHANNELS 3 Zrotation Yrotation Xrotation
										End Site
										{
											OFFSET 0.000000 0.000000 0.000000
										}
									}
								}
								JOINT LThumb
								{
									OFFSET 0.000000 0.000000 0.000000
									CHANNELS 3 Zrotation Yrotation Xrotation
									End Site
									{
										OFFSET 0.000000 0.000000 0.000000
									}
								}
							}
						}
					}
				}
				JOINT RightShoulder
				{
					OFFSET 0.000000 0.000000 0.000000
					CHANNELS 3 Zrotation Yrotation Xrotation
					JOINT RightArm
					{
						OFFSET -3.136600 1.374050 -0.404650
						CHANNELS 3 Zrotation Yrotation Xrotation
						JOINT RightForeArm
						{
							OFFSET -5.241900 -0.000000 -0.000000
							CHANNELS 3 Zrotation Yrotation Xrotation
							JOINT RightHand
							{
								OFFSET -3.444170 -0.000000 -0.000000
								CHANNELS 3 Zrotation Yrotation Xrotation
								JOINT RightFingerBase
								{
									OFFSET 0.000000 0.000000 0.000000
									CHANNELS 3 Zrotation Yrotation Xrotation
									JOINT RightHandIndex1
									{
										OFFSET -0.622530 -0.000000 -0.000000
										CHANNELS 3 Zrotation Yrotation Xrotation
										End Site
										{
											OFFSET 0.000000 0.000000 0.000000
										}
									}
								}
								JOINT RThumb
								{
									OFFSET 0.000000 0.000000 0.000000
									CHANNELS 3 Zrotation Yrotation Xrotation
									End Site
									{
										OFFSET 0.000000 0.000000 0.000000
									}
								}
							}
						}
					}
				}
			}
		}
	}
}
MOTION
Frames: 11
Frame Time: 0.008333
24.425246 15.757688 4.094329 -10.083607 -83.642909 20.141384 -12.086725 7.191492 2.032480 7.398639 11.789555 18.243481 -0.504090 0.890348 6.038525 0.686149 3.113820 13.752694 0.906501 0.000000 -86.349000 8.457535 0.270153 1.095292 15.464526 -10.285514 -55.256809 1.736002 -3.747662 53.441141 -2.801394 -7.115502 -22.898267 2.114000 0.000000 -21.893700 8.612829 -6.771096 -6.052912 1.590219 -7.556552 -3.440403 -5.839406 -7.453659 3.569148 11.934518 -22.835205 -13.279049 -2.080184 -0.073108 -1.435431 0.000000 0.000000 0.000000 5.982957 7.135736 2.578337 -16.832189 -15.347922 3.159298 -1.353762 -48.252107 -0.017051 3.441455 1.018445 0.024355 -0.150961 0.281084 0.000000 0.000000 0.000000 0.000000 0.000000 0.000000 0.000000 18.029791 -23.518334 1.256648 80.221351 -27.002677 -9.427261 4.831296 15.870527 -0.004301 8.957609 0.702099 0.052106 0.061782 0.032556 0.000000 0.000000 0.000000 0.000000 0.000000 0.000000 0.000000 
24.172893 15.772114 4.050048 -10.704906 -83.535230 20.793938 -12.129961 7.303780 2.211887 7.701815 11.087934 17.775915 -0.289767 1.051093 7.499208 0.842565 3.444692 16.533302 1.065301 -0.000000 -86.429900 8.445367 0.171137 1.044727 15.682618 -10.284502 -54.537900 1.697071 -3.739513 54.098319 -2.866511 -7.271683 -23.635475 2.290800 0.000001 -19.093800 8.774857 -6.702823 -6.238723 1.603890 -7.506866 -3.475888 -5.914821 -7.399076 3.575296 12.020055 -22.650953 -13.293442 -2.136307 -0.078761 -1.438489 0.000000 0.000000 0.000000 5.880032 7.274816 2.595447 -16.963531 -14.522281 3.337262 -1.385736 -48.131950 -0.017879 3.750653 0.896033 0.022492 -0.157551 0.275074 0.000000 0.000000 0.000000 0.000000 0.000000 0.000000 0.000000 18.276225 -23.268251 1.232271 79.354839 -26.048609 -11.196352 4.850982 14.692785 -0.005319 8.559053 -0.380408 -0.030708 0.066373 0.032657 0.000000 0.000000 0.000000 0.000000 0.000000 0.000000 0.000000 
23.922636 15.789293 4.003893 -11.365760 -83.488066 21.461845 -12.177567 7.373513 2.376458 7.906723 10.325563 17.204314 -0.070626 1.193879 9.234896 1.026920 3.850304 19.217112 1.262300 -0.000000 -85.319800 8.429914 0.071753 0.987019 15.881208 -10.236634 -53.697765 1.671212 -3.716654 54.608684 -2.927209 -7.394054 -24.384622 2.467200 0.000000 -16.152200 8.904429 -6.614670 -6.373326 1.604598 -7.434967 -3.499577 -6.000572 -7.322383 3.576558 12.115869 -22.431149 -13.303983 -2.196542 -0.084806 -1.441251 0.000000 0.000000 0.000000 5.752794 7.465747 2.613440 -17.187052 -13.706338 3.539246 -1.426860 -47.932536 -0.018562 4.065563 0.782318 0.020328 -0.164428 0.267563 0.000000 0.000000 0.000000 0.000000 0.000000 0.000000 0.000000 18.536910 -22.969674 1.203390 78.491236 -24.984572 -12.935929 4.837651 13.555833 -0.005795 7.857773 -1.219817 -0.085113 0.071338 0.031077 0.000000 0.000000 0.000000 0.000000 0.000000 0.000000 0.000000 
23.675502 15.808874 3.955776 -11.991399 -83.503809 22.063833 -12.225401 7.394175 2.517236 8.012210 9.557850 16.511624 0.137079 1.313263 11.280784 1.225466 4.292240 21.662358 1.486700 -0.000000 -82.872099 8.417934 -0.026000 0.925413 16.037908 -10.142302 -52.735053 1.655470 -3.680726 54.978442 -2.983084 -7.488040 -25.129741 2.639800 0.000000 -13.211100 8.985736 -6.508312 -6.450629 1.588003 -7.340987 -3.513272 -6.101167 -7.223191 3.556209 12.215432 -22.153034 -13.287339 -2.263037 -0.091788 -1.437183 0.000000 0.000000 0.000000 5.634585 7.656274 2.638524 -17.529437 -12.835620 3.756886 -1.479589 -47.669374 -0.018983 4.366097 0.680560 0.018066 -0.171482 0.258410 0.000000 0.000000 0.000000 0.000000 0.000000 0.000000 0.000000 18.783955 -22.592051 1.148990 77.657076 -23.835737 -14.603510 4.786960 12.590980 -0.003904 6.829158 -0.813698 -0.049380 0.076487 0.024036 0.000000 0.000000 0.000000 0.000000 0.000000 0.000000 0.000000 
23.431774 15.830662 3.905826 -12.514147 -83.581879 22.530468 -12.266661 7.363857 2.627061 8.007660 8.816618 15.700532 0.319196 1.409000 13.629586 1.425069 4.779123 23.738600 1.742600 0.000000 -79.157600 8.415273 -0.120308 0.861281 16.134879 -10.007396 -51.647898 1.647900 -3.634010 55.215313 -3.034355 -7.560357 -25.862749 2.807100 -0.000000 -10.344200 9.009631 -6.382949 -6.464754 1.554198 -7.223135 -3.511346 -6.204211 -7.101719 3.537638 12.321881 -21.845816 -13.273650 -2.334233 -0.099048 -1.434668 0.000000 0.000000 0.000000 5.494938 7.891736 2.659693 -17.951384 -12.005700 4.007117 -1.540804 -47.295466 -0.019121 4.650487 0.590235 0.015798 -0.178379 0.247591 0.000000 0.000000 0.000000 0.000000 0.000000 0.000000 0.000000 19.071075 -22.178820 1.110130 76.836476 -22.610604 -16.167191 4.710273 11.658601 -0.003221 5.618933 -0.981926 -0.048365 0.081662 0.019305 0.000000 0.000000 0.000000 0.000000 0.000000 0.000000 0.000000 
23.192253 15.854388 3.854273 -12.894241 -83.718219 22.818118 -12.297832 7.285463 2.695931 7.909183 8.167977 14.745026 0.462834 1.486770 16.297265 1.609610 5.295627 25.301610 2.016300 -0.000000 -74.338800 8.426073 -0.211277 0.799049 16.163955 -9.835568 -50.443907 1.645849 -3.578367 55.329938 -3.082305 -7.623418 -26.572769 2.968900 -0.000000 -7.657200 8.970297 -6.240514 -6.415847 1.501663 -7.082527 -3.496976 -6.313129 -6.958570 3.506867 12.425439 -21.492804 -13.241736 -2.410874 -0.106975 -1.427747 0.000000 0.000000 0.000000 5.364063 8.115863 2.681491 -18.484067 -11.148192 4.275178 -1.612931 -46.827805 -0.018886 4.899382 0.512324 0.013727 -0.184971 0.235085 0.000000 0.000000 0.000000 0.000000 0.000000 0.000000 0.000000 19.361045 -21.707375 1.070080 76.053435 -21.322023 -17.605519 4.607526 10.850303 -0.002136 4.208585 -0.835085 -0.030443 0.087001 0.013369 0.000000 0.000000 0.000000 0.000000 0.000000 0.000000 0.000000 
22.957035 15.879897 3.801467 -13.094508 -83.905736 22.890667 -12.314429 7.166124 2.718252 7.720558 7.640845 13.637195 0.564042 1.557008 19.259617 1.769667 5.878220 26.258021 2.316700 0.000000 -68.795500 8.452754 -0.299191 0.741314 16.123515 -9.633623 -49.133561 1.647717 -3.515957 55.332195 -3.128763 -7.689677 -27.255522 3.126700 0.000000 -5.203000 8.869242 -6.082709 -6.307027 1.432130 -6.920816 -3.470224 -6.424772 -6.795548 3.468143 12.520719 -21.100978 -13.194022 -2.490763 -0.115304 -1.417126 0.000000 0.000000 0.000000 5.231751 8.347638 2.703274 -19.110331 -10.310528 4.571033 -1.696962 -46.238746 -0.018284 5.109425 0.446377 0.011850 -0.191219 0.221043 0.000000 0.000000 0.000000 0.000000 0.000000 0.000000 0.000000 19.643977 -21.186841 1.029113 75.310291 -19.966829 -18.891718 4.486191 10.164973 -0.000819 2.672065 -0.420735 -0.009517 0.092468 0.006549 0.000000 0.000000 0.000000 0.000000 0.000000 0.000000 0.000000 
22.726080 15.906978 3.747866 -13.091935 -84.134766 22.730549 -12.314934 7.015200 2.691734 7.449742 7.254781 12.364824 0.626080 1.631790 22.489119 1.900725 6.564693 26.550882 2.650300 -0.000001 -62.934900 8.495276 -0.384698 0.691059 16.019146 -9.407662 -47.734135 1.652377 -3.448671 55.232383 -3.176153 -7.771711 -27.910724 3.283900 -0.000000 -3.013000 8.710566 -5.913767 -6.146048 1.346112 -6.742965 -3.432851 -6.545697 -6.616807 3.421036 12.619425 -20.671742 -13.129426 -2.578912 -0.124530 -1.402395 0.000000 0.000000 0.000000 5.119361 8.567713 2.722250 -19.848222 -9.461408 4.881159 -1.793812 -45.538141 -0.017292 5.270624 0.391781 0.010368 -0.196912 0.205450 0.000000 0.000000 0.000000 0.000000 0.000000 0.000000 0.000000 19.943629 -20.624013 0.979623 74.555403 -18.519949 -20.213121 4.366715 9.408599 0.001310 1.234125 0.597761 0.006120 0.097432 -0.002529 -0.000000 0.000000 0.000000 0.000000 0.000000 0.000000 0.000000 
22.499234 15.935631 3.693995 -12.847918 -84.391843 22.306674 -12.296976 6.840940 2.620065 7.089193 6.989153 10.935751 0.660385 1.720471 25.927560 2.007001 7.421315 26.193608 3.037200 0.000000 -57.353100 8.553497 -0.468957 0.648581 15.857533 -9.168470 -46.262632 1.659874 -3.378709 55.038116 -3.226378 -7.877926 -28.542107 3.443900 0.000000 -1.079600 8.504948 -5.731869 -5.942858 1.251248 -6.546931 -3.387887 -6.653829 -6.422112 3.370762 12.677148 -20.209156 -13.048480 -2.662310 -0.133411 -1.383772 0.000000 0.000000 0.000000 4.979141 8.800379 2.739957 -20.664750 -8.677056 5.223487 -1.904030 -44.686182 -0.016017 5.390572 0.347839 0.009278 -0.202158 0.188813 0.000000 0.000000 0.000000 0.000000 0.000000 0.000000 0.000000 20.180109 -20.018140 0.943393 73.896753 -17.042100 -21.182782 4.233300 8.954588 0.002502 -0.287845 1.262386 -0.004154 0.102584 -0.009922 -0.000000 0.000000 0.000000 0.000000 0.000000 0.000000 0.000000 
22.276552 15.965730 3.640348 -12.351697 -84.664936 21.614089 -12.263736 6.650551 2.508247 6.646273 6.834901 9.345447 0.678460 1.829502 29.538649 2.092778 8.460414 25.194552 3.459100 0.000000 -52.206400 8.624284 -0.552566 0.614818 15.651892 -8.923683 -44.739386 1.670076 -3.307114 54.756715 -3.281653 -8.016547 -29.153754 -176.389400 0.000000 -0.601500 8.259883 -5.542179 -5.708899 1.149057 -6.338942 -3.339046 -6.754798 -6.216873 3.312985 12.704565 -19.714595 -12.947327 -2.745975 -0.142509 -1.359963 0.000000 0.000000 0.000000 4.843537 8.999409 2.752898 -21.600492 -7.872764 5.562491 -2.027722 -43.716313 -0.014461 5.458552 0.313217 0.008483 -0.206674 0.171192 0.000000 0.000000 0.000000 0.000000 0.000000 0.000000 0.000000 20.372345 -19.376141 0.914025 73.279652 -15.513550 -21.989254 4.105420 8.599970 0.003414 -1.685547 1.913944 -0.030031 0.107212 -0.017113 -0.000000 0.000000 0.000000 0.000000 0.000000 0.000000 0.000000 
22.057599 15.997259 3.587403 -11.585119 -84.942425 20.643348 -12.218712 6.448781 2.364928 6.119344 6.760707 7.605594 0.692597 1.960124 33.264425 2.167107 9.694026 23.605031 3.892500 0.000000 -47.695499 8.704337 -0.635934 0.588224 15.414001 -8.682976 -43.180968 1.683590 -3.234631 54.392413 -3.343290 -8.190243 -29.751465 -176.212800 -0.000001 -2.059400 7.986771 -5.346803 -5.454316 1.044473 -6.121879 -3.288625 -6.841197 -6.004308 3.251257 12.689569 -19.195450 -12.828764 -2.825664 -0.151392 -1.331702 0.000000 0.000000 0.000000 4.695664 9.176717 2.760029 -22.643513 -7.070728 5.896641 -2.164701 -42.618618 -0.012718 5.480338 0.287764 0.008179 -0.210484 0.152940 0.000000 0.000000 0.000000 0.000000 0.000000 0.000000 0.000000 20.497334 -18.707348 0.896811 72.717703 -13.929275 -22.602448 3.984525 8.390086 0.003565 -2.940725 2.261204 -0.060719 0.111248 -0.023115 -0.000000 0.000000 0.000000 0.000000 0.000000 0.000000 0.000000 
